<?xml version="1.0" standalone="no"?>
<!DOCTYPE svg PUBLIC "-//W3C//DTD SVG 1.1//EN" "http://www.w3.org/Graphics/SVG/1.1/DTD/svg11.dtd">
<svg xmlns="http://www.w3.org/2000/svg">
<metadata>Copyright (C) 2024 by original authors @ fontello.com</metadata>
<defs>
<font id="cpa-files" horiz-adv-x="1000" >
<font-face font-family="cpa-files" font-weight="400" font-stretch="normal" units-per-em="1000" ascent="850" descent="-150" />
<missing-glyph horiz-adv-x="1000" />
<glyph glyph-name="4.0" unicode="&#xf800;" d="M912 518c0 0 0 1 0 2 0 0 0 1-1 2 0 0 0 1 0 2 0 0 0 1-1 1 0 1 0 2 0 2 0 1-1 1-1 2 0 1 0 1-1 2 0 0 0 1 0 1-1 1-1 1-1 2-1 1-1 1-1 2-1 0-1 1-2 1 0 1 0 1-1 2-1 1-1 2-2 3l-265 265s-1 0-1 0c-7 7-17 12-28 12h-480c-22 0-39-18-39-39v-477c0-22 17-39 39-39h0c22 0 39 17 39 39v438h402v-227h0c0-5 2-11 3-15 3-6 7-11 12-15 3-3 6-5 9-6 5-2 10-3 15-3h227v-172c0-22 18-39 39-39h0c22 0 39 17 39 39v211h0c0 1 0 3 0 4z m-265 167l132-132h-132v132z m-508-649c2 6 6 13 11 20l101 136c2 3 6 6 11 9 5 3 12 5 20 5h49c10 0 19-4 27-11 7-8 11-17 11-27v-151h8c9 0 17-3 23-10 6-6 10-14 10-23s-4-17-10-23c-6-6-14-9-23-9h-8v-33c0-10-4-19-11-27s-17-11-27-11-20 4-27 11c-7 8-11 17-11 27v33h-119c-10 0-19 3-27 11-7 7-11 16-11 26v28c0 7 1 13 3 19z m154-19v119l-89-119h89z m134-77c2 5 5 9 9 13 4 4 8 7 13 9s11 4 17 4 11-1 16-4 10-5 14-9 7-8 9-13c2-5 3-11 3-16 0-12-4-22-12-30s-18-13-30-13-22 4-30 13c-8 8-12 18-12 30 0 5 1 11 3 16z m201-51c-21 9-38 21-53 36s-27 33-36 53c-9 21-13 42-13 66s4 44 13 65c9 20 20 38 36 53s32 27 53 36c20 9 42 13 65 13s45-4 65-13c21-9 38-21 54-36s27-33 35-53c9-21 14-42 14-65s-5-45-14-66c-8-20-20-38-35-53s-33-27-54-36c-20-9-42-13-65-13s-45 4-65 13z m-20 119c5-11 12-21 20-29 8-9 18-15 29-20 11-5 23-7 36-7s25 2 36 7 21 11 29 20c8 8 15 18 20 29 5 11 7 23 7 36s-2 24-7 35c-5 11-12 21-20 29-8 9-18 15-29 20-11 5-23 8-36 8s-25-3-36-8c-11-5-21-11-29-20-8-8-15-18-20-29-4-11-7-23-7-35s3-25 7-36z" horiz-adv-x="1000" />

<glyph glyph-name="dll" unicode="&#xf801;" d="M912 518c0 0 0 1 0 2 0 0 0 1-1 2 0 0 0 1 0 2 0 0 0 1-1 1 0 1 0 2 0 2 0 1-1 1-1 2 0 1 0 1-1 2 0 0 0 1 0 1-1 1-1 1-1 2-1 1-1 1-1 2-1 0-1 1-2 1 0 1 0 1-1 2-1 1-1 2-2 3l-265 265s-1 0-1 0c-7 7-17 12-28 12h-480c-22 0-39-18-39-39v-477c0-22 17-39 39-39h0c22 0 39 17 39 39v438h402v-227h0c0-5 2-11 3-15 3-6 7-11 12-15 3-3 6-5 9-6 5-2 10-3 15-3h227v-172c0-22 18-39 39-39h0c22 0 39 17 39 39v211h0c0 1 0 3 0 4z m-265 167l132-132h-132v132z m-509-793c-7 8-11 17-11 27v249c0 10 4 19 11 27 8 7 16 11 27 11h101c22 0 42-5 61-14 19-8 35-20 48-35 14-15 25-32 32-52 8-19 12-40 12-61s-4-43-12-62c-7-20-18-37-32-52-13-15-29-27-48-35-19-9-39-14-61-14h-101c-11 0-19 4-27 11z m65 244v-184h54c12 0 23 2 34 7 10 5 19 12 27 20 8 8 14 18 19 29 4 11 6 23 6 35s-2 24-6 35c-4 11-10 21-18 30-8 8-17 15-28 20-10 5-22 8-34 8h-54z m320-185h97c10 0 18-3 25-10 7-7 10-15 10-25s-3-18-10-25c-7-6-15-10-25-10h-135c-10 0-19 4-26 11-8 8-11 17-11 27v249c0 10 3 19 11 27 7 7 16 11 26 11s20-4 27-11c7-8 11-17 11-27v-217z m233 0h97c9 0 17-3 24-10 7-7 11-15 11-25s-4-18-11-25c-7-6-15-10-24-10h-135c-11 0-20 4-27 11s-11 17-11 27v249c0 10 4 19 11 27 7 7 16 11 27 11s19-4 27-11c7-8 11-17 11-27v-217z" horiz-adv-x="1000" />

<glyph glyph-name="doc" unicode="&#xf802;" d="M908 521c0 0 0 1 0 1 0 1-1 2-1 2 0 1 0 2 0 2 0 1 0 2-1 2 0 1 0 1 0 2 0 1-1 1-1 2 0 0 0 1-1 1 0 1 0 2-1 2 0 1 0 1 0 2-1 0-1 1-2 2 0 0 0 1-1 1 0 1 0 1-1 2-1 1-1 2-2 2l-266 266s0 0 0 0c-7 7-17 11-28 11h-480c-22 0-39-17-39-39v-476c0-22 17-39 39-39h0c21 0 39 17 39 39v437h402v-226h0c0-6 1-11 3-15 3-6 7-11 12-15 2-3 6-5 9-6 5-2 10-3 15-3h227v-172c0-22 17-39 39-39h0c22 0 39 17 39 39v211h0c0 1 0 2 0 4z m-266 167l133-132h-133v132z m-604-793c-7 7-11 16-11 27v249c0 10 4 19 11 26 8 8 17 11 27 11h102c21 0 41-4 60-13 19-9 35-20 48-35 14-15 25-32 32-52 8-19 12-40 12-62s-4-42-12-62c-7-19-18-36-32-51-13-15-29-27-48-36-19-8-39-13-60-13h-102c-10 0-19 4-27 11z m65 243v-183h54c12 0 23 2 34 7 10 5 20 11 27 20 8 8 14 18 19 29 4 11 7 23 7 35s-3 24-7 35c-4 11-10 21-18 30-8 8-17 15-28 20-10 5-22 7-34 7h-54z m325-246c-20 8-38 20-53 36s-27 32-36 53c-9 21-13 42-13 65s4 45 13 66c9 20 21 38 36 53s33 27 53 36c20 9 42 13 65 13s45-4 65-13c21-9 38-21 54-36s27-33 35-53c9-21 14-43 14-66s-5-44-14-65c-8-21-20-38-35-53s-33-28-54-36c-20-9-42-13-65-13s-45 4-65 13z m-20 119c5-12 12-21 20-30 8-8 18-15 29-19 11-5 23-7 36-7s25 2 36 7 21 11 29 19 15 18 20 30c5 11 7 23 7 35s-2 25-7 36c-5 11-11 21-20 29-8 9-18 15-29 20-11 5-23 7-36 7s-25-2-36-7c-11-5-21-11-29-20s-15-18-20-29c-4-11-7-23-7-36s3-24 7-35z m362-119c-21 8-38 20-54 36-15 15-27 32-36 53-8 21-13 42-13 65s5 45 13 66c9 20 21 38 36 53 16 15 33 27 54 36 20 9 41 13 64 13 28 0 53-5 75-15 22-10 40-24 55-42 6-7 9-14 9-22 0-7-2-13-5-19-4-5-8-9-12-12-5-4-10-6-15-8-5-2-9-3-12-3-9 0-18 5-27 15-3 4-7 8-12 11-5 4-10 7-16 10-6 3-12 5-19 7-6 2-13 2-21 2-12 0-24-2-35-7-11-5-21-11-29-20-9-8-15-18-20-29-5-11-7-23-7-36s2-24 7-35c5-12 11-21 20-30 8-8 18-15 29-19 11-5 23-7 35-7 15 0 28 3 40 9 12 6 22 13 28 20 5 6 9 10 14 12 4 2 9 4 14 4s9-2 14-4c5-2 10-5 14-9 4-4 8-8 11-13 2-5 4-10 4-16 0-8-3-16-9-23-15-18-33-32-55-42-22-10-47-14-75-14-23 0-44 4-64 13z" horiz-adv-x="1000" />

<glyph glyph-name="html" unicode="&#xf803;" d="M906 518c0 0 0 1 0 2 0 0 0 1-1 2 0 0 0 1 0 2 0 0 0 1 0 1-1 1-1 2-1 2 0 1-1 1-1 2 0 1 0 1-1 2 0 0 0 1 0 1-1 1-1 1-1 2-1 1-1 1-1 2-1 0-1 1-2 1 0 1 0 1-1 2 0 1-1 2-2 3l-265 265s-1 0-1 0c-7 7-17 12-28 12h-480c-22 0-39-18-39-39v-477c0-22 17-39 39-39h0c22 0 39 17 39 39v438h402v-227h0c0-5 2-11 3-15 3-6 7-11 12-15 3-3 6-5 9-6 5-2 10-3 15-3h227v-172c0-22 18-39 39-39h0c22 0 39 17 39 39v211h0c0 1 0 3 0 4z m-265 167l132-132h-132v132z m-538-668v-74c0-9-3-16-9-22s-13-9-22-9-16 3-22 9-9 13-9 22v202c0 8 3 15 9 21 6 6 14 9 22 9s16-3 22-9c6-6 9-13 9-21v-71h97v71c0 8 3 15 9 21 6 6 13 9 21 9s16-3 22-9c6-6 9-13 9-21v-202c0-9-3-16-9-22s-13-9-22-9-15 3-21 9-9 13-9 22v74h-97z m356 158c8 0 15-2 20-8 6-5 9-12 9-20s-3-15-9-20c-5-6-12-9-20-9h-52v-175c0-9-3-16-9-22-7-6-14-9-22-9s-16 3-22 9c-6 6-9 13-9 22v175h-52c-8 0-15 3-20 9-6 5-9 12-9 20s3 15 9 20c5 6 12 8 20 8h166z m325-225c0-2 0-3 0-4v-3c0-4 0-7-1-11-2-3-3-7-6-10-2-3-5-5-9-7-4-2-9-3-14-3-7 0-13 2-19 6-5 4-9 10-11 17l-26 104-39-107c-2-6-6-11-10-15-4-4-10-5-16-5s-12 1-16 5c-4 4-7 9-10 15l-39 107-26-104c-2-7-6-13-11-17-6-4-12-6-19-6-4 0-8 0-12 2-4 2-7 4-9 7-3 3-5 6-7 9-2 4-2 8-2 12 0 3 0 5 1 8l50 202c2 7 6 13 11 17 5 4 11 6 19 6 6 0 12-2 17-5 5-4 9-9 12-15l41-114 42 114c2 6 6 11 11 15 6 3 11 5 17 5 8 0 15-2 20-6 5-4 8-10 10-17l51-202z m67 19h79c8 0 15-3 20-9 6-5 9-12 9-20s-3-15-9-20c-5-6-12-8-20-8h-110c-8 0-15 3-21 9s-9 13-9 21v203c0 8 3 15 9 21 6 6 13 9 21 9s16-3 22-9c6-6 9-13 9-21v-176z" horiz-adv-x="1000" />

<glyph glyph-name="exe" unicode="&#xf804;" d="M912 518c0 0 0 1 0 2 0 0 0 1-1 2 0 0 0 1 0 2 0 0 0 1-1 1 0 1 0 2 0 2 0 1-1 1-1 2 0 1 0 1-1 2 0 0 0 1 0 1-1 1-1 1-1 2-1 1-1 1-1 2-1 0-1 1-2 1 0 1 0 1-1 2-1 1-1 2-2 3l-265 265s-1 0-1 0c-7 7-17 12-28 12h-480c-22 0-39-18-39-39v-477c0-22 17-39 39-39h0c22 0 39 17 39 39v438h402v-227h0c0-5 2-11 3-15 3-6 7-11 12-15 3-3 6-5 9-6 5-2 10-3 15-3h227v-172c0-22 18-39 39-39h0c22 0 39 17 39 39v211h0c0 1 0 3 0 4z m-265 167l132-132h-132v132z m-481-804c-10 0-19 4-26 11-8 8-12 17-12 27v249c0 10 4 19 12 27s16 11 26 11h146c10 0 18-4 25-11 7-6 10-15 10-24s-3-18-10-25c-7-7-15-10-25-10h-108v-56h83c9 0 17-3 23-9 6-7 10-14 10-23s-4-17-10-23c-6-6-14-10-23-10h-83v-64h108c10 0 18-3 25-10 7-7 10-15 10-25s-3-18-10-25-15-10-25-10h-146z m213 264c-5 7-7 14-7 23 0 6 1 12 4 17 2 4 5 8 9 12 4 3 8 5 12 6 5 2 9 3 13 3 6 0 11-2 16-4s10-7 14-11l60-80 60 80c4 4 9 8 14 11 5 2 11 4 17 4 3 0 7-1 11-2 5-2 9-4 13-7 4-2 7-6 9-11 3-5 4-11 4-18 0-4 0-8-2-12-1-4-3-8-5-11l-74-97 81-106c3-3 5-7 6-11 1-4 2-8 2-12 0-6-2-12-4-16-2-5-5-9-9-12-3-3-7-6-12-7-4-2-9-3-13-3-6 0-11 2-17 4-5 2-10 6-13 11l-68 89-68-89c-3-5-8-9-13-11-6-2-11-4-17-4-6 0-12 2-17 4-4 2-8 5-11 9-3 4-6 8-7 12-2 5-2 9-2 13 0 9 2 16 7 23l81 106-74 97z m323-264c-11 0-20 4-27 11-7 8-11 17-11 27v249c0 10 4 19 11 27s16 11 27 11h146c10 0 18-4 25-11 6-6 10-15 10-24s-4-18-10-25c-7-7-15-10-25-10h-108v-56h83c9 0 17-3 23-9 6-7 9-14 9-23s-3-17-9-23c-6-6-14-10-23-10h-83v-64h108c10 0 18-3 25-10 6-7 10-15 10-25s-4-18-10-25c-7-6-15-10-25-10h-146z" horiz-adv-x="1000" />

<glyph glyph-name="img" unicode="&#xf805;" d="M912 521c0 0 0 1 0 1 0 1 0 2-1 2 0 1 0 2 0 2 0 1 0 2-1 2 0 1 0 1 0 2 0 1-1 1-1 2 0 0 0 1-1 1 0 1 0 2 0 2-1 1-1 1-1 2-1 0-1 1-1 2-1 0-1 1-2 1 0 1 0 1-1 2-1 1-1 2-2 2l-265 266s-1 0-1 0c-7 7-17 11-28 11h-480c-22 0-39-17-39-39v-476c0-22 17-39 39-39h0c22 0 39 17 39 39v437h402v-226h0c0-6 2-11 3-15 3-6 7-11 12-15 3-3 6-5 9-6 5-2 10-3 15-3h227v-172c0-22 18-39 39-39h0c22 0 39 17 39 39v211h0c0 1 0 2 0 4z m-265 167l132-132h-132v132z m-530-491c8 8 17 11 27 11s20-3 27-11 11-16 11-26v-249c0-10-4-19-11-27-7-7-16-11-27-11s-19 4-27 11c-7 8-11 17-11 27v249c0 10 4 19 11 26z m465-266c1-2 1-3 1-5v-4c0-4-1-8-2-12-2-5-4-9-7-13s-7-7-11-9c-5-3-11-4-17-4-9 0-16 3-23 8-8 5-12 12-15 21l-32 128-47-132c-3-8-7-14-12-18-6-5-12-7-20-7s-14 2-20 7c-5 4-9 10-12 18l-48 132-32-128c-2-9-7-16-14-21-7-5-14-8-23-8-5 0-10 1-14 3-5 2-9 5-12 8-4 4-6 8-8 12-2 5-3 10-3 15 0 3 0 6 1 9l62 249c2 8 7 15 13 20 6 6 14 8 23 8 8 0 15-2 22-6 6-5 11-11 14-19l51-140 51 140c3 8 8 14 14 19 7 4 14 6 21 6 10 0 18-2 24-8 6-5 10-12 13-20l62-249z m321 20c-2-5-5-10-10-15-7-8-15-16-23-22-9-7-19-13-30-19-10-5-22-9-34-12-12-3-25-5-39-5-23 0-44 5-64 14-21 8-38 20-54 36-15 15-27 32-36 53-8 21-13 42-13 65s5 45 13 66c9 20 21 38 36 53 16 15 33 27 54 36 20 9 41 13 64 13s42-4 60-11c18-7 33-16 45-26 5-3 7-7 9-11 2-5 3-9 3-14 0-6-1-11-3-16-3-5-6-10-9-13-4-4-8-7-13-9-4-2-9-3-13-3-8 0-16 3-23 8-6 5-14 10-24 14-9 3-20 5-32 5-12 0-24-2-35-7-11-5-21-11-29-20-9-8-15-18-20-29-5-11-7-23-7-36s2-24 7-35c5-11 12-21 20-30 8-8 18-15 29-19 11-5 23-7 35-7 7 0 14 0 22 2 7 2 14 4 20 7 6 3 11 7 14 11 4 4 6 8 6 13v17h-58c-9 0-17 3-23 10-7 6-10 14-10 23s3 17 10 24c6 7 14 10 23 10h96c5 0 10-1 15-3 4-2 8-5 12-8 3-4 6-8 8-13 2-4 3-9 3-14v-66c0-7-1-12-2-17z" horiz-adv-x="1000" />

<glyph glyph-name="jpg" unicode="&#xf806;" d="M912 521c0 0 0 1 0 1 0 1 0 2-1 2 0 1 0 2 0 2 0 1 0 2-1 2 0 1 0 1 0 2 0 1-1 1-1 2 0 0 0 1-1 1 0 1 0 2 0 2-1 1-1 1-1 2-1 0-1 1-1 2-1 0-1 1-2 1 0 1 0 1-1 2-1 1-1 2-2 2l-265 266s-1 0-1 0c-7 7-17 11-28 11h-480c-22 0-39-17-39-39v-476c0-22 17-39 39-39h0c22 0 39 17 39 39v437h402v-226h0c0-6 2-11 3-15 3-6 7-11 12-15 3-3 6-5 9-6 5-2 10-3 15-3h227v-172c0-22 18-39 39-39h0c22 0 39 17 39 39v211h0c0 1 0 2 0 4z m-265 167l132-132h-132v132z m-560-658c7 7 16 11 26 11s19-4 27-11c7-8 11-17 11-27 0-7 1-13 4-19 3-6 6-11 10-15 5-4 10-8 16-11 6-2 12-3 19-3s12 1 18 3c6 3 11 7 16 11 4 4 8 9 11 15 2 6 3 12 3 19v168c0 10 4 19 11 26 8 8 17 11 27 11s19-3 27-11c7-7 11-16 11-26v-168c0-17-3-33-10-48s-15-29-26-40c-11-11-25-20-40-27s-31-9-48-9-34 3-49 9-28 16-39 27c-11 11-20 25-27 40-6 15-10 31-10 48 0 10 4 19 12 27z m277 141c0 10 4 19 11 26 7 8 16 11 26 11h86c15 0 30-3 45-9 14-6 26-14 37-24 10-11 18-23 24-37 6-15 9-30 9-46s-3-31-9-45c-6-14-14-26-24-37-11-10-23-19-37-25-15-6-30-9-45-9h-47v-54c0-11-4-20-12-27s-16-11-27-11-19 4-26 11-11 16-11 27v249z m76-33v-92h41c6 0 12 2 18 4 6 2 10 6 14 10 4 4 8 9 10 14 3 6 4 12 4 18s-1 13-4 18c-2 6-6 11-10 15-4 4-8 7-14 10-6 2-12 3-18 3h-41z m482-187c-1-5-4-10-9-15-7-8-15-16-24-22-8-7-18-13-29-19-10-5-22-9-34-12-12-3-25-5-39-5-23 0-45 5-65 14-20 8-38 20-53 36-15 15-27 32-36 53-9 21-13 42-13 65s4 45 13 66c9 20 21 38 36 53 15 15 33 27 53 36 20 9 42 13 65 13s42-4 60-11 32-16 45-26c4-3 7-7 9-11 2-5 3-9 3-14 0-6-1-11-4-16-2-5-5-10-9-13-3-4-8-7-12-9-4-2-9-3-14-3-8 0-15 3-22 8-6 5-14 10-24 14-10 3-20 5-32 5-13 0-24-2-36-7-11-5-20-11-29-20-8-8-15-18-19-29-5-11-8-23-8-36s3-24 8-35c5-11 11-21 19-30 9-8 18-15 29-19 12-5 23-7 36-7 7 0 14 0 22 2 7 2 14 4 19 7 6 3 11 7 15 11 4 4 6 8 6 13v17h-58c-9 0-17 3-24 10-6 6-9 14-9 23s3 17 9 24c7 7 15 10 24 10h96c5 0 10-1 14-3 5-2 9-5 12-8 4-4 7-8 9-13 2-4 3-9 3-14v-66c0-7-1-12-3-17z" horiz-adv-x="1000" />

<glyph glyph-name="key" unicode="&#xf807;" d="M912 518c0 0 0 1 0 2 0 0 0 1-1 2 0 0 0 1 0 2 0 0 0 1-1 1 0 1 0 2 0 2 0 1-1 1-1 2 0 1 0 1-1 2 0 0 0 1 0 1-1 1-1 1-1 2-1 1-1 1-1 2-1 0-1 1-2 1 0 1 0 1-1 2-1 1-1 2-2 3l-265 265s-1 0-1 0c-7 7-17 12-28 12h-480c-22 0-39-18-39-39v-477c0-22 17-39 39-39h0c22 0 39 17 39 39v438h402v-227h0c0-5 2-11 3-15 3-6 7-11 12-15 3-3 6-5 9-6 5-2 10-3 15-3h227v-172c0-22 18-39 39-39h0c22 0 39 17 39 39v211h0c0 1 0 3 0 4z m-265 167l132-132h-132v132z m-281-739c4-4 6-8 8-12 2-5 3-10 3-15 0-3-1-7-2-12-2-4-4-9-7-12-3-4-7-7-11-10s-11-4-18-4c-11 0-20 4-27 11l-126 127v-100c0-10-4-19-11-27-7-7-16-11-27-11s-19 4-27 11c-7 8-11 17-11 27v249c0 10 4 19 11 27 8 7 17 11 27 11s20-4 27-11 11-17 11-27v-90l117 116c7 8 16 12 27 12 4 0 8-1 13-3 4-2 8-4 12-7 4-4 7-8 9-12 2-5 4-11 4-17 0-5-1-10-3-14-2-5-5-9-9-12l-98-93 108-102z m74-65c-11 0-20 4-27 11-7 8-11 17-11 27v249c0 10 4 19 11 27 7 7 16 11 27 11h146c10 0 18-4 25-11 6-6 10-15 10-24s-4-18-10-25c-7-7-15-10-25-10h-108v-56h83c9 0 17-3 23-9 6-7 9-14 9-23s-3-17-9-23c-6-6-14-10-23-10h-83v-64h108c10 0 18-3 25-10 6-7 10-15 10-25s-4-18-10-25c-7-6-15-10-25-10h-146z m368 134v-96c0-10-4-19-12-27-7-7-16-11-26-11s-20 4-27 11c-7 8-11 17-11 27v96l-91 131c-4 7-6 14-6 22 0 6 1 11 3 16 2 5 5 9 9 12 4 3 8 6 12 7 5 2 9 3 13 3 6 0 12-2 18-4 5-3 10-7 13-13l67-95 66 95c4 6 8 10 14 13 5 2 11 4 17 4 4 0 9-1 13-3 5-1 9-4 12-7 4-3 7-7 9-12 2-5 4-10 4-16 0-8-3-15-7-22l-90-131z" horiz-adv-x="1000" />

<glyph glyph-name="mp3" unicode="&#xf808;" d="M912 521c0 0 0 1 0 1 0 1 0 2-1 2 0 1 0 2 0 2 0 1 0 2-1 2 0 1 0 1 0 2 0 1-1 1-1 2 0 0 0 1-1 1 0 1 0 2 0 2-1 1-1 1-1 2-1 0-1 1-1 2-1 0-1 1-2 1 0 1 0 1-1 2-1 1-1 2-2 2l-265 266s-1 0-1 0c-7 7-17 11-28 11h-480c-22 0-39-17-39-39v-476c0-22 17-39 39-39h0c22 0 39 17 39 39v437h402v-226h0c0-6 2-11 3-15 3-6 7-11 12-15 3-3 6-5 9-6 5-2 10-3 15-3h227v-172c0-22 18-39 39-39h0c22 0 39 17 39 39v211h0c0 1 0 2 0 4z m-265 167l132-132h-132v132z m-223-757c0-2 0-3 0-5v-4c0-4 0-8-2-12-1-5-3-9-6-13-4-4-7-7-12-9-5-3-10-4-17-4-8 0-16 3-23 8-7 5-12 12-14 21l-32 128-48-132c-3-8-7-14-12-18-5-5-12-7-20-7s-14 2-19 7c-6 4-9 10-12 18l-48 132-32-128c-3-9-7-16-14-21-7-5-15-8-23-8-5 0-10 1-15 3-5 2-9 5-12 8-3 4-6 8-8 12-2 5-3 10-3 15 0 3 1 6 1 9l63 249c2 8 6 15 12 20 7 6 14 8 24 8 7 0 15-2 21-6 7-5 12-11 14-19l51-140 51 140c3 8 8 14 15 19 6 4 13 6 21 6 9 0 17-2 23-8 7-5 11-12 13-20l62-249z m29 240c0 10 4 19 11 26s16 11 27 11h85c16 0 31-3 45-9 14-6 26-14 37-24 10-11 18-23 24-37 7-15 10-30 10-46s-3-31-10-45c-6-14-14-26-24-37-11-10-23-19-37-25-14-6-29-9-45-9h-47v-54c0-11-4-20-11-27-8-7-17-11-27-11s-20 4-27 11c-7 7-11 16-11 27v249z m76-33v-92h41c6 0 12 2 18 4 6 2 10 6 15 10 4 4 7 9 9 14 3 6 4 12 4 18s-1 13-4 18c-2 6-5 11-9 15-5 4-9 7-15 10-6 2-12 3-18 3h-41z m262-37c-7-5-15-7-23-7-6 0-10 1-15 3-5 3-9 6-12 9-3 4-6 8-8 13-2 5-3 10-3 15 0 12 3 24 9 34 6 10 13 18 22 25 10 7 20 12 32 16 12 3 24 5 36 5s26-2 38-7c12-4 23-11 32-19 9-8 16-17 22-28 5-11 8-23 8-36 0-5-1-10-2-15-1-5-2-10-4-15-2-5-5-9-8-13-3-4-7-7-12-10 2 0 6-2 11-5 5-3 10-8 15-14 5-5 9-13 13-22 4-9 6-20 6-33 0-17-3-32-10-47-6-14-15-27-26-37-11-11-24-19-38-25-15-6-30-9-47-9-17 0-33 3-47 10-15 7-27 16-38 26-10 11-18 23-24 36-6 13-9 25-9 37v5c0 10 3 20 11 27 7 8 16 12 26 12 5 0 10-1 15-3 5-2 9-5 13-9 4-3 6-8 9-12 2-5 3-10 3-15 0-6 1-12 3-17 3-5 6-10 10-14s8-7 13-9c5-2 11-4 17-4s12 2 17 4c5 2 10 5 14 9s7 9 9 14c2 5 3 11 3 17 0 9-1 17-4 22-3 6-7 10-11 14-4 3-9 5-14 7-5 2-9 4-13 6s-8 5-11 8c-3 3-5 8-5 14s1 11 3 14c2 4 4 7 7 9 3 2 6 4 10 5 3 1 6 3 9 5 3 2 5 4 7 7 2 3 3 7 3 13 0 6-2 12-7 17-5 5-10 7-17 7s-12-2-16-6c-4-4-7-9-9-16-1-7-6-13-13-18z" horiz-adv-x="1000" />

<glyph glyph-name="mov" unicode="&#xf809;" d="M910 521c0 0 0 1 0 1 0 1 0 2 0 2 0 1-1 2-1 2 0 1 0 2 0 2 0 1-1 1-1 2 0 1 0 1-1 2 0 0 0 1 0 1-1 1-1 2-1 2 0 1-1 1-1 2 0 0-1 1-1 2-1 0-1 1-1 1-1 1-1 1-1 2-1 1-2 2-3 2l-265 266s0 0 0 0c-8 7-17 11-28 11h-481c-21 0-39-17-39-39v-476c0-22 18-39 39-39h0c22 0 39 17 39 39v437h403v-226h0c0-6 1-11 3-15 2-6 6-11 11-15 3-3 6-5 10-6 4-2 9-3 15-3h226v-172c0-22 18-39 39-39h0c22 0 39 17 39 39v211h0c0 1 0 2 0 4z m-265 167l132-132h-132v132z m-256-757c1-2 1-3 1-5v-4c0-4-1-8-2-12-2-5-4-9-7-13s-7-7-12-9c-4-3-10-4-16-4-9 0-16 3-23 8-8 5-12 12-15 21l-32 128-48-132c-2-8-6-14-11-18-6-5-12-7-20-7s-14 2-20 7c-5 4-9 10-12 18l-48 132-32-128c-2-9-7-16-14-21-7-5-14-8-23-8-5 0-10 1-15 3-4 2-8 5-11 8-4 4-6 8-8 12-2 5-3 10-3 15 0 3 0 6 1 9l62 249c2 8 7 15 13 20 6 6 14 8 23 8 8 0 15-2 22-6 6-5 11-11 14-19l51-140 51 140c3 8 8 14 14 19 7 4 14 6 21 6 10 0 18-2 24-8 6-5 10-12 13-20l62-249z m88-39c-20 8-38 20-53 36-15 15-27 32-36 53-9 21-13 42-13 65s4 45 13 66c9 20 21 38 36 53 15 15 33 27 53 36 20 9 42 13 65 13s45-4 65-13c21-9 39-21 54-36 15-15 27-33 36-53 8-21 13-43 13-66s-5-44-13-65c-9-21-21-38-36-53-15-16-33-28-54-36-20-9-42-13-65-13s-45 4-65 13z m-20 119c5-12 12-21 20-30 8-8 18-15 29-19 11-5 23-7 36-7s25 2 36 7c11 4 21 11 29 19s15 18 20 30c5 11 7 23 7 35s-2 25-7 36c-5 11-11 21-20 29-8 9-18 15-29 20-11 5-23 7-36 7s-25-2-36-7c-11-5-21-11-29-20-8-8-15-18-20-29-4-11-7-23-7-36s3-24 7-35z m400-121c-6-4-13-6-21-6s-16 2-22 6c-5 5-10 10-13 18l-109 247c-2 5-3 10-3 15 0 5 0 9 2 14 1 4 3 8 7 12 3 3 7 6 11 9 5 2 11 3 17 3 8 0 14-1 21-5 6-4 10-10 13-17l75-187 75 187c3 7 8 13 14 17 6 4 13 5 21 5 4 0 9 0 13-2 5-1 9-4 13-7 3-3 6-7 8-12 2-5 3-10 3-17 0-5-1-10-3-15l-109-247c-3-8-8-13-13-18z" horiz-adv-x="1000" />

<glyph glyph-name="mp4" unicode="&#xf80a;" d="M910 518c0 0 0 1 0 2 0 0 0 1 0 2 0 0 0 1-1 2 0 0 0 1 0 1 0 1 0 2-1 2 0 1 0 1 0 2-1 1-1 1-1 2 0 0-1 1-1 1 0 1-1 1-1 2 0 1-1 1-1 2 0 0-1 1-1 1-1 1-1 1-1 2-1 1-2 2-3 3l-265 265s0 0 0 0c-7 7-17 12-28 12h-481c-21 0-39-18-39-39v-477c0-22 18-39 39-39h0c22 0 40 17 40 39v438h402v-227h0c0-5 1-11 3-15 2-6 6-11 11-15 3-3 6-5 10-6 4-2 10-3 15-3h227v-172c0-22 17-39 39-39h0c21 0 39 17 39 39v211h0c0 1 0 3-1 4z m-265 167l132-132h-132v132z m-237-757c1-1 1-3 1-4v-5c0-4-1-8-2-12-2-4-4-9-7-12s-7-8-12-10c-4-2-10-4-16-4-9 0-16 3-23 8-8 6-12 12-15 21l-32 128-48-132c-2-8-6-14-11-18-6-4-12-7-20-7s-14 3-20 7c-5 4-9 10-12 18l-48 132-32-128c-2-9-7-15-14-21-7-5-14-8-23-8-5 0-10 1-14 3-5 2-9 5-12 9-4 3-6 7-8 11-2 5-3 10-3 15 0 3 0 6 1 9l62 249c2 8 7 15 13 21 6 5 14 8 23 8 8 0 15-3 22-7 6-5 11-11 14-18l51-141 51 141c3 7 8 13 14 18 7 4 14 7 21 7 10 0 18-3 24-8 6-6 10-13 13-21l62-249z m29 240c0 10 4 19 11 27 8 7 17 11 27 11h85c16 0 31-3 45-9 14-7 27-15 37-25 11-11 19-23 25-37 6-14 9-30 9-46s-3-31-9-45c-6-14-14-26-25-37-11-10-23-18-37-25-14-6-29-9-45-9h-47v-54c0-10-4-19-11-27-7-7-16-11-27-11s-19 4-27 11c-7 8-11 17-11 27v249z m76-32v-92h42c6 0 12 1 17 3 6 3 11 6 15 10 4 4 7 9 10 15 2 5 3 11 3 17s-1 13-3 18c-3 6-6 11-10 15-4 4-9 8-15 10-5 2-11 4-17 4h-42z m180-100c2 6 5 13 11 20l101 136c2 3 5 6 11 9 5 3 12 5 20 5h49c10 0 19-4 26-11s11-17 11-27v-151h9c9 0 17-3 23-10 6-6 9-14 9-23s-3-17-9-23c-6-6-14-9-23-9h-9v-33c0-10-3-19-11-27-7-7-16-11-26-11s-20 4-27 11c-8 8-11 17-11 27v33h-119c-11 0-19 3-27 11-7 7-11 16-11 26v28c0 7 1 13 3 19z m154-19v119l-89-119h89z" horiz-adv-x="1000" />

<glyph glyph-name="pdf" unicode="&#xf80b;" d="M912 518c0 0 0 1 0 2 0 0 0 1-1 2 0 0 0 1 0 2 0 0 0 1-1 1 0 1 0 2 0 2 0 1-1 1-1 2 0 1 0 1-1 2 0 0 0 1 0 1-1 1-1 1-1 2-1 1-1 1-1 2-1 0-1 1-2 1 0 1 0 1-1 2-1 1-1 2-2 3l-265 265s-1 0-1 0c-7 7-17 12-28 12h-480c-22 0-39-18-39-39v-477c0-22 17-39 39-39h0c22 0 39 17 39 39v438h402v-227h0c0-5 2-11 3-15 3-6 7-11 12-15 3-3 6-5 9-6 5-2 10-3 15-3h227v-172c0-22 18-39 39-39h0c22 0 39 17 39 39v211h0c0 1 0 3 0 4z m-265 167l132-132h-132v132z m-544-517c0 10 3 19 11 27 7 7 16 11 26 11h85c16 0 31-3 45-9 14-7 27-15 37-25 11-11 19-23 25-37 6-14 9-30 9-46s-3-31-9-45c-6-14-14-26-25-37-10-10-23-18-37-25-14-6-29-9-45-9h-47v-54c0-10-3-19-11-27-7-7-16-11-27-11s-19 4-26 11c-8 8-11 17-11 27v249z m75-32v-92h42c6 0 12 1 18 3 5 3 10 6 14 10 4 4 7 9 10 15 2 5 4 11 4 17s-2 13-4 18c-3 6-6 11-10 15-4 4-9 8-14 10-6 2-12 4-18 4h-42z m203-244c-8 8-11 17-11 27v249c0 10 3 19 11 27 7 7 16 11 26 11h102c22 0 42-5 60-14 19-8 35-20 49-35 13-15 24-32 32-52 8-19 12-40 12-61s-4-43-12-62c-8-20-19-37-32-52-14-15-30-27-49-35-18-9-38-14-60-14h-102c-10 0-19 4-26 11z m64 244v-184h54c13 0 24 2 34 7 11 5 20 12 28 20 8 8 14 18 18 29 5 11 7 23 7 35s-2 24-7 35c-4 11-10 21-18 30-8 8-17 15-27 20-11 5-22 8-35 8h-54z m310-244c-8-7-17-11-27-11s-20 4-27 11c-7 8-11 17-11 27v249c0 10 4 19 11 27 7 7 16 11 27 11h146c10 0 18-4 25-11 6-6 10-15 10-24s-4-18-10-25c-7-7-15-10-25-10h-108v-56h83c9 0 17-3 23-9 6-7 9-14 9-23s-3-17-9-23c-6-6-14-10-23-10h-83v-96c0-10-4-19-11-27z" horiz-adv-x="1000" />

<glyph glyph-name="png" unicode="&#xf80c;" d="M912 521c0 0 0 1 0 1 0 1 0 2-1 2 0 1 0 2 0 2 0 1 0 2-1 2 0 1 0 1 0 2 0 1-1 1-1 2 0 0 0 1-1 1 0 1 0 2 0 2-1 1-1 1-1 2-1 0-1 1-1 2-1 0-1 1-2 1 0 1 0 1-1 2-1 1-1 2-2 2l-265 266s-1 0-1 0c-7 7-17 11-28 11h-480c-22 0-39-17-39-39v-476c0-22 17-39 39-39h0c22 0 39 17 39 39v437h402v-226h0c0-6 2-11 3-15 3-6 7-11 12-15 3-3 6-5 9-6 5-2 10-3 15-3h227v-172c0-22 18-39 39-39h0c22 0 39 17 39 39v211h0c0 1 0 2 0 4z m-265 167l132-132h-132v132z m-581-517c0 10 4 19 11 26 7 8 16 11 27 11h85c16 0 31-3 45-9 14-6 26-14 37-24 10-11 18-23 25-37 6-15 9-30 9-46s-3-31-9-45c-7-14-15-26-25-37-11-10-23-19-37-25-14-6-29-9-45-9h-47v-54c0-11-4-20-11-27s-17-11-27-11-20 4-27 11-11 16-11 27v249z m76-33v-92h41c7 0 12 2 18 4 6 2 11 6 15 10 4 4 7 9 9 14 3 6 4 12 4 18s-1 13-4 18c-2 6-5 11-9 15-4 4-9 7-15 10-6 2-11 3-18 3h-41z m267-64v-152c0-11-4-20-11-27s-17-11-27-11-19 4-27 11-11 16-11 27v249c0 10 4 19 11 26 8 8 16 11 27 11 6 0 12-1 17-4 5-2 9-6 12-9l136-175v151c0 10 4 19 11 26 8 8 17 11 27 11s20-3 27-11c7-7 11-16 11-26v-249c0-11-4-20-11-27-7-7-16-11-27-11-7 0-12 2-18 5-5 3-9 6-12 10l-135 175z m534-123c-1-5-4-10-9-15-7-8-15-16-24-22-9-7-18-13-29-19-11-5-22-9-34-12-13-3-26-5-39-5-23 0-45 5-65 14-20 8-38 20-53 36-15 15-27 32-36 53-9 21-13 42-13 65s4 45 13 66c9 20 21 38 36 53 15 15 33 27 53 36 20 9 42 13 65 13s42-4 59-11 33-16 46-26c4-3 7-7 9-11 2-5 3-9 3-14 0-6-2-11-4-16-2-5-5-10-9-13-4-4-8-7-12-9-5-2-9-3-14-3-8 0-15 3-22 8-6 5-14 10-24 14-10 3-21 5-32 5-13 0-25-2-36-7-11-5-21-11-29-20-8-8-15-18-20-29-4-11-7-23-7-36s3-24 8-35c4-11 11-21 19-30 8-8 18-15 29-19 11-5 23-7 36-7 7 0 14 0 21 2 8 2 14 4 20 7 6 3 11 7 15 11 4 4 6 8 6 13v17h-58c-9 0-17 3-24 10-6 6-9 14-9 23s3 17 9 24c7 7 15 10 24 10h95c6 0 10-1 15-3 5-2 9-5 12-8 4-4 6-8 8-13 2-4 3-9 3-14v-66c0-7 0-12-2-17z" horiz-adv-x="1000" />

<glyph glyph-name="ppt" unicode="&#xf80d;" d="M912 518c0 0 0 1 0 2 0 0 0 1-1 2 0 0 0 1 0 2 0 0 0 1-1 1 0 1 0 2 0 2 0 1-1 1-1 2 0 1 0 1-1 2 0 0 0 1 0 1-1 1-1 1-1 2-1 1-1 1-1 2-1 0-1 1-2 1 0 1 0 1-1 2-1 1-1 2-2 3l-265 265s-1 0-1 0c-7 7-17 12-28 12h-480c-22 0-39-18-39-39v-477c0-22 17-39 39-39h0c22 0 39 17 39 39v438h402v-227h0c0-5 2-11 3-15 3-6 7-11 12-15 3-3 6-5 9-6 5-2 10-3 15-3h227v-172c0-22 18-39 39-39h0c22 0 39 17 39 39v211h0c0 1 0 3 0 4z m-265 167l132-132h-132v132z m-535-517c0 10 4 19 11 27 8 7 17 11 27 11h85c16 0 31-3 45-9 14-7 27-15 37-25 11-11 19-23 25-37 6-14 9-30 9-46s-3-31-9-45c-6-14-14-26-25-37-10-10-23-18-37-25-14-6-29-9-45-9h-47v-54c0-10-4-19-11-27s-16-11-27-11-19 4-27 11-11 17-11 27v249z m76-32v-92h42c6 0 12 1 18 3 5 3 10 6 14 10 4 4 7 9 10 15 2 5 3 11 3 17s-1 13-3 18c-3 6-6 11-10 15-4 4-9 8-14 10-6 2-12 4-18 4h-42z m192 32c0 10 3 19 11 27 7 7 16 11 26 11h85c16 0 31-3 45-9 14-7 27-15 37-25 11-11 19-23 25-37 6-14 9-30 9-46s-3-31-9-45c-6-14-14-26-25-37-10-10-23-18-37-25-14-6-29-9-45-9h-47v-54c0-10-3-19-11-27s-16-11-27-11-19 4-26 11-11 17-11 27v249z m75-32v-92h42c6 0 12 1 18 3 5 3 10 6 14 10 4 4 8 9 10 15 2 5 4 11 4 17s-2 13-4 18c-2 6-6 11-10 15-4 4-9 8-14 10-6 2-12 4-18 4h-42z m411 70c10 0 19-4 26-11 6-6 10-15 10-24s-4-18-10-25c-7-7-16-10-26-10h-64v-217c0-10-3-19-11-27-7-7-16-11-27-11s-19 4-26 11-11 17-11 27v217h-65c-9 0-18 3-24 10-7 7-11 15-11 25s4 18 11 24c6 7 15 11 24 11h204z" horiz-adv-x="1000" />

<glyph glyph-name="rar" unicode="&#xf80e;" d="M910 518c0 0 0 1 0 2 0 0 0 1 0 2 0 0 0 1-1 2 0 0 0 1 0 1 0 1 0 2-1 2 0 1 0 1 0 2-1 1-1 1-1 2 0 0-1 1-1 1 0 1-1 1-1 2 0 1-1 1-1 2 0 0-1 1-1 1 0 1-1 1-1 2-1 1-2 2-3 3l-265 265s0 0 0 0c-7 7-17 12-28 12h-480c-22 0-40-18-40-39v-477c0-22 18-39 40-39h0c21 0 39 17 39 39v438h402v-227h0c0-5 1-11 3-15 2-6 6-11 11-15 3-3 6-5 10-6 4-2 10-3 15-3h227v-172c0-22 17-39 39-39h0c21 0 39 17 39 39v211h0c0 1 0 3-1 4z m-265 167l132-132h-132v132z m-327-739c5-4 8-8 10-13 2-5 3-10 3-15 0-4-1-8-2-12-2-4-4-8-7-12-3-4-7-7-11-9-5-3-10-4-16-4-5 0-9 1-13 2-5 2-9 4-12 7l-98 84h-5v-55c0-10-3-19-11-27-7-7-16-11-27-11s-19 4-26 11c-8 8-11 17-11 27v249c0 10 3 19 11 27 7 7 16 11 26 11h84c16 0 31-3 45-9 14-7 27-15 37-26 11-10 19-23 25-37 7-14 10-29 10-45 0-22-7-41-19-57-12-16-30-29-54-37l61-49z m-151 190v-92h45c7 0 13 1 18 3 6 3 10 6 15 10 4 4 7 9 10 15 2 5 3 11 3 17s-1 13-3 18c-3 6-6 11-10 15-5 4-9 7-15 10-5 2-11 4-18 4h-45z m396-196h-133l-16-37c-3-7-7-12-14-16-6-4-13-6-20-6-3 0-7 1-12 2s-8 4-12 7c-3 3-7 7-9 11-3 5-4 11-4 18 0 5 1 10 3 15l115 254c8 16 20 23 36 23s30-7 36-23l113-254c2-5 3-10 3-15 0-11-4-20-11-27s-16-11-26-11c-7 0-14 2-20 6-7 4-11 9-14 16l-15 37z m-105 65h78l-39 95-39-95z m443-59c4-4 7-8 9-13 3-5 4-10 4-15 0-4-1-8-3-12-1-4-4-8-7-12-3-4-7-7-11-9-5-3-10-4-16-4-4 0-9 1-13 2-4 2-8 4-12 7l-98 84h-4v-55c0-10-4-19-11-27-8-7-17-11-27-11s-20 4-27 11c-7 8-11 17-11 27v249c0 10 4 19 11 27 7 7 16 11 27 11h84c15 0 30-3 45-9 14-7 26-15 37-26 10-10 19-23 25-37 6-14 9-29 9-45 0-22-6-41-19-57-12-16-30-29-54-37l62-49z m-151 190v-92h45c6 0 12 1 17 3 6 3 11 6 15 10 4 4 7 9 10 15 2 5 4 11 4 17s-2 13-4 18c-3 6-6 11-10 15-4 4-9 7-15 10-5 2-11 4-17 4h-45z" horiz-adv-x="1000" />

<glyph glyph-name="sat" unicode="&#xf80f;" d="M912 518c0 0 0 1 0 2 0 0 0 1-1 2 0 0 0 1 0 2 0 0 0 1-1 1 0 1 0 2 0 2 0 1-1 1-1 2 0 1 0 1-1 2 0 0 0 1 0 1-1 1-1 1-1 2-1 1-1 1-1 2-1 0-1 1-2 1 0 1 0 1-1 2-1 1-1 2-2 3l-265 265s-1 0-1 0c-7 7-17 12-28 12h-480c-22 0-39-18-39-39v-477c0-22 17-39 39-39h0c22 0 39 17 39 39v438h402v-227h0c0-5 2-11 3-15 3-6 7-11 12-15 3-3 6-5 9-6 5-2 10-3 15-3h227v-172c0-22 18-39 39-39h0c22 0 39 17 39 39v211h0c0 1 0 3 0 4z m-265 167l132-132h-132v132z m-304-749c-7-14-16-25-27-34-11-9-25-16-40-20-15-4-31-6-48-6-14 0-28 2-42 6-14 5-27 11-38 18-11 7-20 16-27 25-7 10-10 19-10 29s3 19 10 26c7 7 16 11 26 11 8 0 14-3 20-7 6-5 12-10 19-16 6-5 14-10 22-15 8-5 17-7 29-7 7 0 13 2 19 4 5 3 9 6 12 10 3 4 6 8 7 12 1 4 2 7 2 10 0 9-4 16-11 22-8 6-16 10-26 13l-36 11c-11 4-22 8-32 13-10 5-18 11-26 18-7 7-13 15-18 24-4 9-6 20-6 31 0 17 3 32 9 44 6 12 14 22 24 30 11 8 23 14 36 18 14 3 28 5 43 5s30-2 43-5c13-4 24-8 33-14 10-6 17-13 22-20 5-8 8-16 8-23 0-13-3-22-9-27-7-5-13-7-21-7-5 0-11 1-16 3-5 2-9 5-12 8-2 2-5 5-9 7-3 3-7 6-11 9-5 2-9 4-14 6-5 2-10 3-15 3-10 0-18-3-25-9-7-6-11-13-11-22 0-3 1-6 2-9 0-3 2-5 4-7 3-3 6-5 10-7 4-3 10-5 16-7l39-11c11-4 23-8 33-13s19-12 27-19c8-8 14-17 18-27 5-10 7-22 7-35 0-19-3-36-10-49z m236 4h-133l-16-37c-3-7-7-12-14-16-6-4-13-6-20-6-3 0-7 1-12 2-4 2-8 4-12 7-3 3-7 7-9 11-3 5-4 11-4 18 0 5 1 10 3 15l115 254c8 16 20 23 36 23s30-7 36-23l113-254c2-5 3-10 3-15 0-11-4-20-11-27s-16-11-26-11c-7 0-14 2-20 6-7 4-11 9-14 16l-15 37z m-106 65h79l-39 95-40-95z m388 201c10 0 18-4 25-11 7-6 10-15 10-24s-3-18-10-25c-7-7-15-10-25-10h-64v-217c0-10-4-19-11-27-8-7-17-11-27-11s-19 4-27 11c-7 8-11 17-11 27v217h-64c-10 0-18 3-25 10-7 7-10 15-10 25s3 18 10 24c7 7 15 11 25 11h204z" horiz-adv-x="1000" />

<glyph glyph-name="sql" unicode="&#xf810;" d="M908 522c0 0 0 1 0 1 0 1 0 2 0 3 0 0-1 1-1 1 0 1 0 2 0 2 0 1-1 1-1 2 0 1 0 1 0 2-1 0-1 1-1 2-1 0-1 1-1 1 0 1-1 1-1 2 0 0-1 1-1 2 0 0-1 1-1 1-1 1-1 1-1 2-1 1-2 2-3 3l-265 265s0 0 0 0c-7 7-17 12-28 12h-481c-21 0-39-18-39-39v-477c0-22 18-39 39-39h0c22 0 39 17 39 39v437h403v-226h0c0-6 1-11 3-15 2-6 6-11 11-15 3-3 6-5 10-6 4-2 9-3 15-3h226v-172c0-22 18-39 39-39h0c22 0 39 17 39 39v211h0c0 1 0 2 0 4z m-265 167l132-132h-132v132z m-336-750c-7-13-16-25-27-33-12-9-25-16-40-20-15-4-31-6-48-6-14 0-28 2-42 6-14 5-27 11-38 18-11 7-20 16-27 25-7 9-10 19-10 29s3 19 10 26c7 7 16 11 26 11 7 0 14-3 20-7 6-5 12-10 19-16 6-5 13-10 22-15 8-5 17-7 28-7 8 0 14 1 20 4 5 3 9 6 12 10 3 4 6 8 7 12 1 4 2 7 2 10 0 9-4 16-11 22-8 5-16 10-26 13l-36 11c-11 4-22 8-32 13-10 5-18 11-26 18-7 6-13 15-18 24-4 9-7 20-7 31 0 17 4 32 10 44 6 12 14 22 24 30 11 8 23 14 36 18 14 3 28 5 43 5s30-2 43-5c13-4 24-9 33-15 10-5 17-12 22-20 5-7 8-15 8-23 0-12-3-21-9-26-7-5-14-7-21-7-5 0-11 1-16 3-5 2-9 4-12 8-2 2-5 4-9 7-3 3-7 6-11 9-5 2-9 4-14 6-5 2-10 3-15 3-10 0-18-3-25-9-7-6-11-14-11-22 0-3 1-6 1-9 1-3 3-5 5-7 2-3 6-5 10-7 4-3 9-5 16-7l39-12c11-3 22-7 33-13s19-11 27-19c8-7 14-16 18-26 5-10 7-22 7-35 0-19-4-36-10-50z m132-46c-20 9-38 21-53 36s-27 33-36 53c-9 21-13 42-13 65s4 45 13 66c9 20 21 38 36 53s33 27 53 36c21 9 42 13 65 13s45-4 66-13c20-9 38-21 53-36s27-33 36-53c9-21 13-43 13-66 0-16-2-31-6-44-4-14-9-26-15-37l27-26c8-8 11-17 11-27 0-3 0-7-1-11-2-4-3-8-6-12-3-3-7-6-11-9-4-2-10-4-17-4-5 0-10 1-14 3-5 2-9 4-12 8l-26 24c-12-9-27-17-43-23-16-6-34-9-55-9-23 0-44 4-65 13z m-19 119c5-11 11-21 20-30 8-8 18-14 29-19 11-5 23-7 35-7s25 2 36 7 21 11 30 19c8 9 15 19 19 30 5 11 7 23 7 35s-2 25-7 36c-4 11-11 21-19 29-9 9-19 15-30 20-11 5-23 7-36 7s-24-2-35-7c-11-5-21-11-29-20-9-8-15-18-20-29-5-11-7-23-7-36s2-24 7-35z m374-57h96c10 0 18-3 25-10 7-7 10-15 10-25s-3-18-10-25c-7-6-15-10-25-10h-134c-11 0-20 4-27 11-7 8-11 16-11 27v249c0 10 4 19 11 27s16 11 27 11 19-4 27-11 11-17 11-27v-217z" horiz-adv-x="1000" />

<glyph glyph-name="txt" unicode="&#xf811;" d="M315 206c10 0 18-4 25-10 7-7 10-16 10-25s-3-18-10-25c-7-7-15-10-25-10h-64v-217c0-10-4-19-11-27-8-7-17-11-27-11s-19 4-27 11c-7 8-11 17-11 27v217h-64c-10 0-18 3-25 10-7 7-10 15-10 25s3 18 10 25 15 10 25 10h204z m64-61c-5 7-7 14-7 23 0 6 1 12 4 17 2 5 5 8 9 12 4 3 8 5 12 7 5 1 9 2 13 2 6 0 11-2 16-4s10-7 14-11l60-80 60 80c4 4 9 8 14 11 5 2 11 4 17 4 3 0 7-1 11-2s9-4 13-7c4-2 7-6 9-11 3-5 4-11 4-18 0-4 0-8-2-12-1-4-3-8-5-11l-74-97 81-106c3-3 5-7 6-11 1-4 2-8 2-12 0-6-2-11-4-16-2-5-5-9-9-12-3-3-7-6-12-7-4-2-9-3-13-3-6 0-11 2-17 4-5 2-10 6-13 11l-68 90-68-90c-3-5-8-9-13-11-6-2-11-4-17-4-6 0-12 2-17 4-4 2-8 5-11 9-3 4-6 8-7 12-2 5-2 9-2 13 0 9 2 16 7 23l81 106-74 97z m510 61c10 0 18-4 25-10 7-7 10-16 10-25s-3-18-10-25c-7-7-15-10-25-10h-64v-217c0-10-4-19-11-27-8-7-17-11-27-11s-19 4-27 11c-7 8-11 17-11 27v217h-64c-10 0-18 3-25 10-7 7-10 15-10 25s3 18 10 25 15 10 25 10h204z m23 312c0 0 0 1 0 2 0 0 0 1-1 2 0 0 0 1 0 2 0 0 0 1-1 1 0 1 0 2 0 2 0 1-1 1-1 2 0 0 0 1-1 2 0 0 0 1 0 1-1 1-1 1-1 2-1 1-1 1-1 2-1 0-1 1-2 1 0 1 0 1-1 2-1 1-1 2-2 3l-265 265s-1 0-1 0c-7 7-17 12-28 12h-480c-22 0-39-18-39-39v-477c0-22 17-39 39-39h0c22 0 39 17 39 39v438h402v-227h0c0-5 2-11 3-15 3-6 7-11 12-15 3-3 6-5 9-6 5-2 10-3 15-3h227v-172c0-22 18-39 39-39h0c22 0 39 17 39 39v211h0c0 1 0 3 0 4z m-265 167l132-132h-132v132z" horiz-adv-x="1000" />

<glyph glyph-name="xls" unicode="&#xf812;" d="M912 521c0 0 0 1 0 1 0 1 0 2-1 2 0 1 0 2 0 2 0 1 0 2-1 2 0 1 0 1 0 2 0 1-1 1-1 2 0 0 0 1-1 1 0 1 0 2 0 2-1 1-1 1-1 2-1 0-1 1-1 2-1 0-1 1-2 1 0 1 0 1-1 2-1 1-1 2-2 2l-265 266s-1 0-1 0c-7 7-17 11-28 11h-480c-22 0-39-17-39-39v-476c0-22 17-39 39-39h0c22 0 39 17 39 39v437h402v-226h0c0-6 2-11 3-15 3-6 7-11 12-15 3-3 6-5 9-6 5-2 10-3 15-3h227v-172c0-22 18-39 39-39h0c22 0 39 17 39 39v211h0c0 1 0 2 0 4z m-265 167l132-132h-132v132z m-509-540c-5 7-7 14-7 22 0 7 1 13 3 17 3 5 6 9 10 12 4 4 8 6 12 7 4 2 9 2 13 2 5 0 11-1 16-3s10-7 14-12l60-79 60 79c4 5 8 9 14 12 5 2 11 3 16 3 4 0 8 0 12-1 4-2 9-4 12-7 4-3 8-7 10-11 3-5 4-11 4-19 0-4-1-8-2-11-1-4-3-8-5-11l-74-97 81-106c3-4 4-7 6-11 1-4 1-8 1-12 0-6-1-12-3-16-2-5-5-9-9-12-4-4-8-6-12-8-5-1-9-2-13-2-6 0-12 1-17 4-5 2-10 6-14 11l-67 89-68-89c-4-5-8-9-13-11-6-3-11-4-17-4-6 0-12 1-17 4-4 2-8 5-11 9-3 3-6 8-7 12-2 4-3 9-3 13 0 9 3 16 8 23l80 106-73 97z m361-194h96c10 0 18-3 25-10 7-7 10-15 10-25s-3-18-10-25c-7-7-15-10-25-10h-135c-10 0-19 4-26 11-7 7-11 16-11 27v249c0 10 4 19 11 26 7 8 16 11 26 11s20-3 27-11c8-7 12-16 12-26v-217z m365-16c-7-13-16-25-27-34-12-9-25-15-40-19s-31-7-48-7c-14 0-28 3-42 7-14 5-27 11-38 18-11 7-20 16-27 25-7 9-10 19-10 29s3 19 10 26 16 10 26 10c7 0 14-2 20-6 6-5 12-10 19-16s13-11 22-15c8-5 17-7 29-7 7 0 13 1 19 4 5 3 9 6 12 10 3 4 6 7 7 11 1 4 2 8 2 11 0 9-4 16-11 22-8 5-16 10-26 13l-36 11c-11 4-22 8-32 13-10 5-18 11-26 17-7 7-13 15-18 25-4 9-6 19-6 31 0 17 3 31 9 44 6 12 14 22 24 30 11 8 23 14 36 17 14 4 28 6 43 6s30-2 43-5c13-4 24-9 33-15 10-6 17-12 22-20 5-7 8-15 8-23 0-12-3-21-9-26-7-5-14-7-21-7-5 0-11 1-16 3-5 2-9 4-12 7-2 3-5 5-9 8-3 3-7 6-11 8-5 3-9 5-14 7-5 2-10 3-15 3-10 0-18-3-25-9-7-6-11-14-11-23 0-2 1-5 1-8 1-3 3-5 5-8 2-2 6-4 10-6 4-3 9-5 16-7l39-12c11-3 23-7 33-13 10-5 19-11 27-19 8-7 14-16 18-26 5-10 7-22 7-36 0-19-4-35-10-49z" horiz-adv-x="1000" />

<glyph glyph-name="xml" unicode="&#xf813;" d="M910 518c0 0 0 1 0 2 0 0 0 1 0 2 0 0-1 1-1 2 0 0 0 1 0 1 0 1-1 2-1 2 0 1 0 1-1 2 0 1 0 1 0 2-1 0-1 1-1 1 0 1-1 1-1 2 0 1-1 1-1 2-1 0-1 1-1 1-1 1-1 1-1 2-1 1-2 2-3 3l-265 265s0 0 0 0c-8 7-17 12-28 12h-481c-21 0-39-18-39-39v-477c0-22 18-39 39-39h0c22 0 39 17 39 39v438h403v-227h0c0-5 1-11 3-15 2-6 6-11 11-15 3-3 6-5 10-6 4-2 9-3 15-3h226v-172c0-22 18-39 39-39h0c22 0 39 17 39 39v211h0c0 1 0 3 0 4z m-265 167l132-132h-132v132z m-579-540c-4 7-7 14-7 23 0 6 1 12 4 17 2 4 5 8 9 12 4 3 8 5 13 6 4 2 8 3 12 3 6 0 11-2 17-4s9-7 13-11l60-80 61 80c3 4 8 8 13 11 6 2 11 4 17 4 3 0 7-1 12-2 4-2 8-4 12-7 4-2 7-6 10-11 2-5 3-11 3-18 0-4 0-8-1-12-1-4-3-8-6-11l-73-97 80-106c3-3 5-7 6-11 1-4 2-8 2-12 0-6-1-12-4-16-2-5-5-9-9-12-3-3-7-6-12-7-4-2-8-3-13-3-6 0-11 2-16 4-6 2-10 6-14 11l-68 89-67-89c-4-5-9-9-14-11-5-2-11-4-17-4-6 0-12 2-16 4-5 2-9 5-12 9-3 4-5 8-7 12-1 5-2 9-2 13 0 9 2 16 7 23l81 106-74 97z m645-217c1-1 1-3 1-4v-5c0-4 0-8-2-12-1-4-4-9-7-12-3-4-6-8-11-10-5-2-10-4-17-4-8 0-16 3-23 8-7 6-12 12-14 21l-32 128-48-132c-3-8-7-14-12-18-5-4-12-7-20-7s-14 3-19 7c-6 4-10 10-12 18l-48 132-33-128c-2-9-6-15-13-21-7-5-15-8-23-8-5 0-10 1-15 3-5 2-9 5-12 9-3 3-6 7-8 11-2 5-3 10-3 15 0 3 1 6 1 9l63 249c2 8 6 15 12 21 7 5 14 8 24 8 7 0 14-3 21-7 7-5 12-11 14-18l51-141 51 141c3 7 8 13 15 18 6 4 13 7 21 7 9 0 17-3 23-8 7-6 11-13 13-21l62-249z m105 23h97c10 0 18-3 25-10 7-7 10-15 10-25s-3-18-10-25c-7-6-15-10-25-10h-135c-10 0-19 4-26 11-7 8-11 17-11 27v249c0 10 4 19 11 27s16 11 26 11 20-4 27-11 11-17 11-27v-217z" horiz-adv-x="1000" />

<glyph glyph-name="zip" unicode="&#xf814;" d="M912 518c0 0 0 1 0 2 0 0 0 1-1 2 0 0 0 1 0 2 0 0 0 1-1 1 0 1 0 2 0 2 0 1-1 1-1 2 0 1 0 1-1 2 0 0 0 1 0 1-1 1-1 1-1 2-1 1-1 1-1 2-1 0-1 1-2 1 0 1 0 1-1 2-1 1-1 2-2 3l-265 265s-1 0-1 0c-7 7-17 12-28 12h-480c-22 0-39-18-39-39v-477c0-22 17-39 39-39h0c22 0 39 17 39 39v438h402v-227h0c0-5 2-11 3-15 3-6 7-11 12-15 3-3 6-5 9-6 5-2 10-3 15-3h227v-172c0-22 18-39 39-39h0c22 0 39 17 39 39v211h0c0 1 0 3 0 4z m-265 167l132-132h-132v132z m-360-734h124c10 0 18-3 25-10 6-7 10-15 10-25s-4-18-10-25c-7-6-15-10-25-10h-196c-10 0-18 4-25 10-7 7-10 16-10 25 0 5 1 9 2 12 1 4 3 7 5 10l145 198h-114c-10 0-18 3-25 10-7 7-10 15-10 25s3 18 10 24c7 7 15 11 25 11h187c10 0 18-4 25-11 7-6 11-15 11-24 0-5-1-8-2-12-1-3-3-6-5-9l-147-199z m201 244c8 7 17 11 27 11s20-4 27-11c7-8 11-17 11-27v-249c0-10-4-19-11-27-7-7-16-11-27-11s-19 4-27 11c-7 8-11 17-11 27v249c0 10 4 19 11 27z m105-27c0 10 3 19 11 27 7 7 16 11 26 11h86c15 0 30-3 44-9 15-7 27-15 37-25 11-11 19-23 25-37 6-14 9-30 9-46s-3-31-9-45c-6-14-14-26-25-37-10-10-22-18-37-25-14-6-29-9-44-9h-48v-54c0-10-3-19-11-27-7-7-16-11-27-11s-19 4-26 11c-8 8-11 17-11 27v249z m75-32v-92h42c6 0 12 1 18 3 6 3 10 6 14 10 4 4 8 9 10 15 3 5 4 11 4 17s-1 13-4 18c-2 6-6 11-10 15-4 4-8 8-14 10-6 2-12 4-18 4h-42z" horiz-adv-x="1000" />
</font>
</defs>
</svg>
